<svg width="151" height="94" viewBox="0 0 151 94" fill="none" xmlns="http://www.w3.org/2000/svg">
<rect width="131" height="43" fill="black"/>
<rect x="26" y="51" width="125" height="43" fill="black"/>
<path d="M24.6306 31H15.6306V30.28H17.4306V11.56H15.6306V10.84H24.6306C26.4066 10.84 28.0026 11.14 29.4186 11.74C30.8586 12.316 32.0226 13.084 32.9106 14.044C34.7106 16.036 35.6106 18.292 35.6106 20.812C35.6106 24.22 34.7106 26.776 32.9106 28.48C31.1106 30.16 28.3506 31 24.6306 31ZM22.8306 30.28C25.4226 30.28 27.2946 29.584 28.4466 28.192C29.5986 26.776 30.1746 24.484 30.1746 21.316C30.1746 18.124 29.5506 15.7 28.3026 14.044C27.0546 12.388 25.2306 11.56 22.8306 11.56V30.28ZM50.0191 11.56V20.848C52.4191 20.848 54.0271 20.5 54.8431 19.804C55.6591 19.108 56.0671 17.944 56.0671 16.312C56.0671 14.68 55.6471 13.48 54.8071 12.712C53.9671 11.944 52.3711 11.56 50.0191 11.56ZM64.1671 31.36H62.5831C59.5831 31.36 57.4951 30.712 56.3191 29.416C55.3831 28.408 54.7471 27.076 54.4111 25.42C54.2671 24.724 54.1111 24.088 53.9431 23.512C53.5591 22.216 52.7791 21.568 51.6031 21.568H50.0191V30.28H51.8191V31H42.8191V30.28H44.6191V11.56H42.8191V10.84H52.2871C58.4071 10.84 61.4671 12.628 61.4671 16.204C61.4671 17.62 60.9511 18.772 59.9191 19.66C58.8871 20.548 57.5671 20.992 55.9591 20.992V21.244C58.3591 21.244 60.0271 22.828 60.9631 25.996C61.4431 27.676 61.9231 28.876 62.4031 29.596C62.9071 30.292 63.4951 30.64 64.1671 30.64V31.36ZM85.7963 20.884C85.7963 17.812 85.3763 15.424 84.5363 13.72C83.7203 11.992 82.5803 11.128 81.1163 11.128C79.6763 11.128 78.5363 11.992 77.6963 13.72C76.8563 15.448 76.4363 17.86 76.4363 20.956C76.4363 24.052 76.8323 26.44 77.6243 28.12C78.4403 29.8 79.6043 30.64 81.1163 30.64C84.2363 30.64 85.7963 27.388 85.7963 20.884ZM91.5923 21.1C91.5923 24.388 90.6203 26.92 88.6763 28.696C86.7323 30.472 84.2003 31.36 81.0803 31.36C77.9603 31.36 75.4403 30.484 73.5203 28.732C71.6003 26.956 70.6403 24.424 70.6403 21.136C70.6403 17.824 71.6003 15.208 73.5203 13.288C75.4403 11.368 77.9843 10.408 81.1523 10.408C84.3443 10.408 86.8763 11.368 88.7483 13.288C90.6443 15.184 91.5923 17.788 91.5923 21.1ZM106.355 11.56V23.296C108.323 23.296 109.667 22.876 110.387 22.036C111.107 21.172 111.467 19.672 111.467 17.536C111.467 15.4 111.107 13.876 110.387 12.964C109.667 12.028 108.323 11.56 106.355 11.56ZM108.155 30.28V31H99.1548V30.28H100.955V11.56H99.1548V10.84H106.319C113.375 10.504 116.903 12.772 116.903 17.644C116.903 19.804 116.015 21.448 114.239 22.576C112.463 23.704 109.835 24.184 106.355 24.016V30.28H108.155Z" fill="white"/>
<path d="M56.102 74.44H56.822V82H40.298V81.28L50.486 62.56H48.182C45.95 62.56 44.378 62.956 43.466 63.748C42.554 64.54 42.098 66.184 42.098 68.68H41.378V61.84H56.57V62.56L46.238 81.28H50.018C51.146 81.28 52.058 81.208 52.754 81.064C53.45 80.896 54.074 80.584 54.626 80.128C55.61 79.264 56.102 77.368 56.102 74.44ZM79.5487 71.884C79.5487 68.812 79.1287 66.424 78.2887 64.72C77.4727 62.992 76.3327 62.128 74.8687 62.128C73.4287 62.128 72.2887 62.992 71.4487 64.72C70.6087 66.448 70.1887 68.86 70.1887 71.956C70.1887 75.052 70.5847 77.44 71.3767 79.12C72.1927 80.8 73.3567 81.64 74.8687 81.64C77.9887 81.64 79.5487 78.388 79.5487 71.884ZM85.3447 72.1C85.3447 75.388 84.3727 77.92 82.4287 79.696C80.4847 81.472 77.9527 82.36 74.8327 82.36C71.7127 82.36 69.1927 81.484 67.2727 79.732C65.3527 77.956 64.3927 75.424 64.3927 72.136C64.3927 68.824 65.3527 66.208 67.2727 64.288C69.1927 62.368 71.7367 61.408 74.9047 61.408C78.0967 61.408 80.6287 62.368 82.5007 64.288C84.3967 66.184 85.3447 68.788 85.3447 72.1ZM95.0672 81.28H97.9472V82H92.1872V81.28H94.3472V64.144C93.5792 63.088 92.8592 62.56 92.1872 62.56V61.84H98.9192L109.035 73.828V62.56H106.155V61.84H112.275V62.56H109.755V82.36H109.035L95.0672 65.044V81.28ZM130.623 81.28C134.223 81.28 136.023 79.24 136.023 75.16H136.743V82H119.823V81.28H121.623V62.56H119.823V61.84H136.383V67.96H135.663C135.663 65.824 135.231 64.396 134.367 63.676C133.527 62.932 132.159 62.56 130.263 62.56H127.023V71.2H128.463C130.191 71.2 131.283 70.984 131.739 70.552C132.195 70.12 132.423 69.256 132.423 67.96H133.143V75.16H132.423C132.423 73.816 132.195 72.94 131.739 72.532C131.283 72.124 130.191 71.92 128.463 71.92H127.023V81.28H130.623Z" fill="white"/>
</svg>
